<svg width="40" height="40" viewBox="0 0 40 40" fill="none" xmlns="http://www.w3.org/2000/svg">
<g id="fi-rr-document" clip-path="url(#clip0_61_20702)">
<path id="Vector" d="M28.3335 23.3333C28.3335 23.7753 28.1579 24.1993 27.8453 24.5118C27.5328 24.8244 27.1089 25 26.6668 25H13.3335C12.8915 25 12.4675 24.8244 12.155 24.5118C11.8424 24.1993 11.6668 23.7753 11.6668 23.3333C11.6668 22.8913 11.8424 22.4674 12.155 22.1548C12.4675 21.8422 12.8915 21.6667 13.3335 21.6667H26.6668C27.1089 21.6667 27.5328 21.8422 27.8453 22.1548C28.1579 22.4674 28.3335 22.8913 28.3335 23.3333ZM21.6668 28.3333H13.3335C12.8915 28.3333 12.4675 28.5089 12.155 28.8215C11.8424 29.134 11.6668 29.558 11.6668 30C11.6668 30.442 11.8424 30.8659 12.155 31.1785C12.4675 31.4911 12.8915 31.6667 13.3335 31.6667H21.6668C22.1089 31.6667 22.5328 31.4911 22.8453 31.1785C23.1579 30.8659 23.3335 30.442 23.3335 30C23.3335 29.558 23.1579 29.134 22.8453 28.8215C22.5328 28.5089 22.1089 28.3333 21.6668 28.3333ZM36.6668 17.475V31.6667C36.6642 33.876 35.7854 35.9941 34.2231 37.5563C32.6609 39.1185 30.5428 39.9973 28.3335 40H11.6668C9.4575 39.9973 7.33943 39.1185 5.7772 37.5563C4.21497 35.9941 3.33614 33.876 3.3335 31.6667V8.33332C3.33614 6.12399 4.21497 4.00591 5.7772 2.44368C7.33943 0.881455 9.4575 0.00263144 11.6668 -1.49913e-05H19.1918C20.7245 -0.00395987 22.2428 0.295965 23.6589 0.882417C25.0749 1.46887 26.3607 2.33021 27.4418 3.41665L33.2485 9.22665C34.3356 10.3071 35.1974 11.5924 35.7842 13.0083C36.371 14.4241 36.671 15.9424 36.6668 17.475ZM25.0852 5.77332C24.5606 5.26525 23.9717 4.82819 23.3335 4.47332V11.6667C23.3335 12.1087 23.5091 12.5326 23.8217 12.8452C24.1342 13.1577 24.5581 13.3333 25.0002 13.3333H32.1935C31.8384 12.6953 31.4008 12.1069 30.8918 11.5833L25.0852 5.77332ZM33.3335 17.475C33.3335 17.2 33.2802 16.9367 33.2552 16.6667H25.0002C23.6741 16.6667 22.4023 16.1399 21.4646 15.2022C20.5269 14.2645 20.0002 12.9927 20.0002 11.6667V3.41165C19.7302 3.38665 19.4652 3.33332 19.1918 3.33332H11.6668C10.3407 3.33332 9.06898 3.8601 8.1313 4.79778C7.19361 5.73547 6.66683 7.00724 6.66683 8.33332V31.6667C6.66683 32.9927 7.19361 34.2645 8.1313 35.2022C9.06898 36.1399 10.3407 36.6666 11.6668 36.6666H28.3335C29.6596 36.6666 30.9313 36.1399 31.869 35.2022C32.8067 34.2645 33.3335 32.9927 33.3335 31.6667V17.475Z" fill="#1080FF"/>
</g>
<defs>
<clipPath id="clip0_61_20702">
<rect width="40" height="40" fill="white"/>
</clipPath>
</defs>
</svg>
